<svg xmlns="http://www.w3.org/2000/svg" width="944" height="250" viewBox="0 0 944 250" version="1.1"><path d="M 407.460 38.250 C 407.197 38.938, 407.099 72.125, 407.241 112 L 407.500 184.500 429.250 184.770 L 451 185.039 451.059 148.270 C 451.105 119.427, 451.374 111.902, 452.309 113.365 C 452.964 114.391, 460.025 124.226, 468 135.220 C 475.975 146.215, 487.271 161.800, 493.102 169.855 L 503.705 184.500 523.102 184.500 L 542.500 184.500 542.500 111 L 542.500 37.500 520.750 37.230 L 499 36.961 498.969 39.730 C 498.952 41.254, 498.839 58.137, 498.719 77.249 C 498.598 96.360, 498.398 111.998, 498.274 111.999 C 498.150 111.999, 497.250 110.485, 496.274 108.634 C 495.298 106.783, 483.484 89.908, 470.019 71.134 L 445.538 37 426.738 37 C 412.619 37, 407.818 37.311, 407.460 38.250 M 630.106 140.902 C 628.309 142.054, 629.244 148.413, 632.105 154.501 C 639.038 169.250, 662.148 169.508, 669.541 154.919 C 670.913 152.212, 672.119 147.924, 672.255 145.273 L 672.500 140.500 652 140.254 C 640.725 140.119, 630.873 140.410, 630.106 140.902" stroke="none" fill="#08b9c1" fill-rule="evenodd"/><path d="M 638.462 25.625 C 635.458 32.019, 633 37.692, 633 38.232 C 633 38.784, 633.767 38.888, 634.750 38.471 C 639.214 36.575, 650.268 33.801, 657.842 32.676 L 666.184 31.437 655.679 22.719 C 649.901 17.923, 644.892 14, 644.549 14 C 644.206 14, 641.467 19.231, 638.462 25.625 M 685 22 C 679.775 26.377, 675.163 29.968, 674.750 29.979 C 674.337 29.991, 674 30.360, 674 30.800 C 674 31.239, 677.868 32.159, 682.596 32.842 C 687.323 33.526, 694.616 35.173, 698.803 36.502 C 702.989 37.831, 706.556 38.778, 706.728 38.605 C 707.201 38.132, 695.778 13.997, 695.093 14.021 C 694.767 14.032, 690.225 17.623, 685 22 M 202 31.631 C 186.006 34.716, 174.769 40.242, 166.643 49.019 C 158.682 57.618, 156.547 63.625, 156.521 77.500 C 156.501 87.829, 156.696 88.913, 159.709 95.274 C 165.121 106.700, 176.042 115.747, 192 122.024 C 195.025 123.213, 204.475 125.969, 213 128.147 C 221.525 130.325, 229.478 132.746, 230.674 133.527 C 236.186 137.126, 234.070 143.584, 226.498 146.278 C 222.475 147.709, 219.355 147.966, 210.500 147.596 C 197.467 147.052, 185.300 143.850, 174.234 138.051 C 167.816 134.688, 166.842 134.427, 166.076 135.866 C 163.903 139.945, 151.873 169.244, 152.256 169.524 C 152.390 169.622, 155.676 171.569, 159.557 173.851 C 181.981 187.032, 215.015 191.356, 241.191 184.538 C 268.381 177.456, 284.313 155.945, 280.187 131.887 C 276.376 109.661, 259.560 96.408, 224.463 87.970 C 210.236 84.549, 205.442 82.695, 204.036 80.067 C 199.843 72.233, 208.852 68.941, 227.703 71.417 C 238.669 72.858, 252.324 76.718, 256.857 79.658 C 258.153 80.498, 259.583 80.807, 260.034 80.343 C 260.707 79.652, 264.070 72.056, 274.657 47.316 C 275.420 45.531, 257.246 37.266, 246.112 34.334 C 238.181 32.246, 233.701 31.746, 220.500 31.476 C 211.700 31.296, 203.375 31.365, 202 31.631 M 598 50 C 598 57.700, 598.239 64, 598.531 64 C 598.822 64, 600.457 62.410, 602.163 60.468 C 605.822 56.300, 621.945 44, 623.750 44 C 626.127 44, 624.990 42.036, 622.250 41.410 C 620.737 41.065, 615.143 39.707, 609.819 38.391 C 604.494 37.076, 599.657 36, 599.069 36 C 598.361 36, 598 40.733, 598 50 M 726.501 39.087 C 720.451 40.689, 715.113 42.129, 714.637 42.288 C 714.162 42.446, 716.603 44.322, 720.062 46.457 C 723.521 48.592, 729.623 53.447, 733.622 57.246 L 740.893 64.152 741.196 50.075 C 741.553 33.551, 743.083 34.695, 726.501 39.087 M 287.024 77.750 C 287.038 100.521, 287.478 120.361, 288.022 122.718 C 289.572 129.432, 293.916 137.690, 298.694 143.005 C 307.192 152.457, 319.997 157.757, 336.500 158.654 C 355.127 159.667, 371.018 154.148, 381.225 143.123 C 393.030 130.373, 393.960 125.460, 393.983 75.750 L 394 37 376 37 L 358 37 358 74.134 C 358 99.043, 357.625 112.521, 356.860 115.074 C 356.233 117.167, 354.183 120.369, 352.304 122.190 C 348.991 125.401, 348.639 125.500, 340.518 125.500 C 331.046 125.500, 328.133 124.102, 324.851 117.983 C 323.141 114.794, 323 111.585, 323 75.766 L 323 37 305 37 L 287 37 287.024 77.750 M 498.402 60 C 498.402 68.525, 498.556 72.013, 498.743 67.750 C 498.931 63.487, 498.931 56.513, 498.743 52.250 C 498.556 47.987, 498.402 51.475, 498.402 60 M 652 57.295 C 638.843 60.881, 629.873 66.103, 619.899 75.982 C 610.353 85.437, 605.269 93.548, 601.188 105.833 C 599.029 112.334, 598.631 115.402, 598.571 126 C 598.493 139.822, 600.272 147.612, 606.214 159.465 C 609.634 166.288, 616.894 175.881, 618.691 175.953 C 620.685 176.032, 621.297 173.941, 619.647 172.683 C 615.025 169.163, 607.747 152.443, 605.071 139.201 C 603.522 131.535, 603.754 112.514, 605.475 106.045 C 610.590 86.825, 626.044 71.218, 646.036 65.083 C 666.074 58.935, 683.058 59.855, 699.457 67.979 C 716.657 76.499, 730.309 95.470, 734.014 116 C 735.449 123.945, 735.468 139.603, 734.052 146.872 C 732.544 154.614, 727.576 164.022, 721.383 170.866 C 718.422 174.138, 716 177.306, 716 177.907 C 716 180.243, 718.926 178.804, 722.867 174.529 C 728.858 168.029, 733.815 159.838, 737.342 150.608 C 740.317 142.822, 740.441 141.884, 740.470 127 C 740.498 112.287, 740.351 111.094, 737.558 103.500 C 733.428 92.272, 728.617 84.630, 720.500 76.411 C 706.952 62.689, 691.503 55.981, 672 55.350 C 662.311 55.036, 659.162 55.342, 652 57.295 M 580.500 72.511 C 574.450 73.820, 568.938 74.915, 568.250 74.945 C 567.563 74.975, 566.992 75.563, 566.983 76.250 C 566.961 77.847, 578.291 100.904, 579.125 100.959 C 579.469 100.982, 580.031 99.594, 580.375 97.875 C 581.250 93.499, 585.728 83.641, 590.198 76.250 C 592.306 72.766, 593.430 70.029, 592.739 70.065 C 592.058 70.101, 586.550 71.202, 580.500 72.511 M 746 70.461 C 746 70.834, 747.256 73.021, 748.791 75.320 C 752.475 80.839, 757.520 91.504, 758.940 96.776 C 759.565 99.099, 760.268 101, 760.500 101 C 760.996 101, 773 76.985, 773 75.994 C 773 75.625, 767.938 74.303, 761.750 73.055 C 755.563 71.807, 749.487 70.561, 748.250 70.285 C 747.013 70.009, 746 70.088, 746 70.461 M 691.259 79.250 C 682.980 87.713, 679.097 101.296, 679.036 122 C 678.999 134.902, 680.755 146.635, 684.029 155.365 C 687.218 163.863, 688.689 165, 696.500 165 L 703 165 703 121.035 C 703 78.592, 702.933 77.035, 701.066 76.035 C 697.648 74.206, 695.507 74.908, 691.259 79.250 M 642.641 78.750 C 642.369 79.713, 641.837 93.438, 641.459 109.250 L 640.772 138 644.886 138 L 649 138 649 107.500 L 649 77 646.067 77 C 644.129 77, 642.967 77.593, 642.641 78.750 M 663.381 99.670 C 663.747 112.226, 664.319 125.987, 664.652 130.250 L 665.258 138 669.129 138 C 671.554 138, 673.003 137.533, 673.009 136.750 C 673.026 134.281, 669.905 91.350, 669.210 84.500 C 668.522 77.716, 668.411 77.490, 665.607 77.170 L 662.715 76.840 663.381 99.670 M 632.995 79.750 C 632.993 80.713, 632.095 92.750, 631 106.500 C 628.298 140.432, 628.154 138, 632.865 138 L 636.729 138 637.345 125.750 C 637.684 119.013, 638.255 105.513, 638.614 95.750 L 639.267 78 636.133 78 C 633.818 78, 632.999 78.457, 632.995 79.750 M 653 108.392 L 653 138 657 138 C 660.481 138, 661 137.708, 661 135.750 C 661.001 132.135, 658.806 80.517, 658.643 80.331 C 658.562 80.238, 657.259 79.852, 655.748 79.473 L 653 78.783 653 108.392 M 575.020 109.476 C 574.346 110.288, 569.503 114.207, 564.258 118.184 L 554.721 125.414 558.049 127.957 C 559.878 129.356, 564.937 133.342, 569.290 136.815 C 573.642 140.288, 577.337 142.988, 577.499 142.815 C 577.662 142.642, 577.349 139.800, 576.803 136.500 C 575.811 130.502, 576.300 112.987, 577.551 109.727 C 578.362 107.615, 576.701 107.451, 575.020 109.476 M 762.595 112.622 C 763.566 118.880, 763.567 132.112, 762.598 138.362 L 761.844 143.223 771.927 135.458 C 781.792 127.860, 784.683 125.251, 783.893 124.657 C 783.677 124.495, 778.626 120.623, 772.670 116.053 L 761.839 107.744 762.595 112.622 M 451.451 149.500 C 451.451 169.300, 451.585 177.542, 451.748 167.815 C 451.912 158.088, 451.912 141.888, 451.749 131.815 C 451.586 121.742, 451.452 129.700, 451.451 149.500 M 576.985 154.043 C 575.737 156.494, 572.981 161.764, 570.859 165.753 C 567.148 172.728, 566.159 175.991, 567.750 176.008 C 568.163 176.012, 573.890 177.137, 580.478 178.508 C 587.065 179.879, 592.809 181, 593.240 181 C 593.672 181, 592.817 179.088, 591.340 176.750 C 587.215 170.222, 582.841 161.078, 580.956 155.043 L 579.252 149.586 576.985 154.043 M 758.628 154.880 C 756.808 161.010, 752.451 170.191, 748.692 175.820 C 747.106 178.196, 746.008 180.342, 746.254 180.587 C 746.724 181.058, 772.200 176.111, 772.914 175.411 C 773.387 174.948, 761.230 150, 760.533 150 C 760.282 150, 759.425 152.196, 758.628 154.880 M 688 176 L 688 185 696 185 L 704 185 704 182.147 C 704 180.577, 703.711 176.527, 703.358 173.147 L 702.715 167 695.358 167 L 688 167 688 176 M 642 176.500 L 642 185 650 185 L 658 185 658 176.500 L 658 168 650 168 L 642 168 642 176.500 M 287 178.500 L 287 186 341 186 L 395 186 395 178.500 L 395 171 341 171 L 287 171 287 178.500 M 160.763 215.565 C 155.653 218.338, 156.192 224.704, 161.712 226.769 C 168.877 229.451, 168.737 229.348, 165.799 229.752 C 164.314 229.956, 162.196 229.640, 161.091 229.049 C 159.459 228.175, 158.889 228.338, 158.042 229.922 C 157.469 230.992, 157 232.276, 157 232.774 C 157 234.280, 161.847 236, 166.093 236 C 170.605 236, 175 232.568, 175 229.045 C 175 226.294, 171.612 223.072, 167.948 222.340 C 166.304 222.011, 164.716 221.350, 164.420 220.871 C 163.731 219.756, 164.720 219.773, 168.803 220.943 C 171.797 221.802, 172.178 221.662, 173.046 219.378 C 174.301 216.077, 174.441 216.349, 170.851 215.098 C 166.685 213.646, 164.078 213.767, 160.763 215.565 M 176.589 214.744 C 176.265 215.068, 176 218.668, 176 222.744 C 176 229.601, 176.218 230.372, 178.923 233.077 C 182.895 237.048, 188.574 237.153, 192.401 233.326 C 194.919 230.808, 195.058 230.181, 194.788 222.580 L 194.500 214.508 191.500 214.504 L 188.500 214.500 188 222 C 187.556 228.667, 187.278 229.500, 185.500 229.500 C 183.725 229.500, 183.444 228.667, 183 222.107 C 182.518 214.983, 182.403 214.704, 179.839 214.435 C 178.375 214.281, 176.913 214.420, 176.589 214.744 M 197.597 214.736 C 197.269 215.065, 197 219.983, 197 225.667 L 197 236 200.500 236 L 204 236 204 231.277 L 204 226.555 205.668 229.027 C 206.586 230.387, 207.506 231.707, 207.713 231.961 C 207.919 232.214, 209.177 231.089, 210.508 229.461 L 212.928 226.500 212.964 231.250 C 212.999 235.853, 213.093 236, 216 236 L 219 236 219 225.125 L 219 214.250 216.475 214.250 C 214.683 214.250, 213.159 215.369, 211.225 218.104 C 209.726 220.223, 208.275 221.950, 208 221.941 C 207.725 221.932, 206.339 220.243, 204.920 218.188 C 202.578 214.796, 199.152 213.181, 197.597 214.736 M 221.667 214.667 C 221.300 215.033, 221 219.983, 221 225.667 L 221 236 224.500 236 C 227.988 236, 228 235.984, 228 231.444 L 228 226.888 230.568 229.694 C 232.043 231.306, 233.335 232.029, 233.604 231.392 C 233.861 230.782, 234.717 229.432, 235.504 228.392 C 236.812 226.664, 236.939 226.911, 236.968 231.250 L 237 236 240.500 236 L 244 236 244 225.559 C 244 219.303, 243.576 214.856, 242.943 214.465 C 240.872 213.185, 237.464 215.017, 235.115 218.672 L 232.730 222.384 230.811 219.942 C 226.599 214.581, 225.951 214, 224.176 214 C 223.163 214, 222.033 214.300, 221.667 214.667 M 245.509 218.164 C 245.158 220.549, 245.012 225.425, 245.185 229 L 245.500 235.500 254.250 235.789 L 263 236.078 263 233.039 C 263 230.022, 262.960 230, 257.500 230 C 254.475 230, 252 229.550, 252 229 C 252 228.450, 254.250 228, 257 228 C 261.889 228, 262 227.933, 262 225 C 262 222.068, 261.880 221.996, 256.750 221.837 L 251.500 221.674 257 221.087 C 262.311 220.520, 262.500 220.397, 262.500 217.508 L 262.500 214.515 254.324 214.172 L 246.148 213.828 245.509 218.164 M 264.667 214.667 C 264.300 215.033, 264 219.983, 264 225.667 L 264 236 267.094 236 C 269.309 236, 270.331 235.452, 270.692 234.069 C 271.462 231.126, 273.621 230.872, 274.854 233.579 C 275.717 235.473, 276.723 236, 279.479 236 C 283.294 236, 283.876 234.741, 281.508 231.613 C 280.268 229.975, 280.272 229.450, 281.539 227.640 C 284.910 222.828, 282.341 216.744, 276.221 215.044 C 272.006 213.874, 265.667 213.667, 264.667 214.667 M 291.597 214.736 C 291.269 215.065, 291 220.012, 291 225.730 L 291 236.127 294.250 235.813 C 297.358 235.514, 297.500 235.314, 297.500 231.249 C 297.500 228.910, 297.585 226.998, 297.688 226.999 C 297.791 226.999, 299.330 229.025, 301.107 231.500 C 303.645 235.034, 304.954 236, 307.203 236 L 310.068 236 309.784 225.297 L 309.500 214.593 306.500 214.547 C 303.694 214.503, 303.468 214.781, 303 218.849 L 302.500 223.197 299.430 218.825 C 296.635 214.843, 293.254 213.079, 291.597 214.736 M 312.452 214.882 C 312.203 215.130, 312 218.797, 312 223.030 C 312 230.013, 312.245 230.972, 314.636 233.364 C 318.443 237.171, 324.122 237.032, 328.120 233.034 C 330.964 230.190, 331.073 229.751, 330.793 222.330 L 330.500 214.591 327.500 214.546 L 324.500 214.500 324 222 C 323.556 228.667, 323.278 229.500, 321.500 229.500 C 319.725 229.500, 319.444 228.667, 319 222.083 C 318.508 214.782, 318.456 214.664, 315.702 214.548 C 314.163 214.483, 312.700 214.633, 312.452 214.882 M 332.703 214.631 C 332.316 215.017, 332 216.659, 332 218.280 C 332 220.986, 332.246 221.191, 335 220.787 L 338 220.346 338 228.173 L 338 236 341.500 236 L 345 236 345 228.173 L 345 220.346 348.073 220.797 C 351.033 221.232, 351.133 221.125, 350.823 217.874 L 350.500 214.500 341.953 214.214 C 337.252 214.057, 333.089 214.244, 332.703 214.631 M 352.667 214.667 C 352.300 215.033, 352 219.983, 352 225.667 L 352 236 355.500 236 C 358.500 236, 359 235.667, 359 233.667 C 359 232.196, 359.591 231.333, 360.597 231.333 C 361.476 231.333, 362.673 232.383, 363.258 233.667 C 364.063 235.433, 365.132 236, 367.661 236 C 371.292 236, 371.841 234.695, 369.508 231.613 C 368.268 229.975, 368.272 229.450, 369.539 227.640 C 372.910 222.828, 370.341 216.744, 364.221 215.044 C 360.006 213.874, 353.667 213.667, 352.667 214.667 M 372.443 215.288 C 372.155 216.037, 372.051 220.891, 372.210 226.075 L 372.500 235.500 375.785 235.816 L 379.069 236.132 378.785 225.398 L 378.500 214.665 375.733 214.296 C 374.038 214.070, 372.763 214.455, 372.443 215.288 M 380.399 215.404 C 379.218 218.480, 380.446 220.499, 383.518 220.533 L 386.500 220.567 386.792 228.283 L 387.084 236 390 236 L 392.916 236 393.208 228.283 L 393.500 220.567 396.500 220.533 C 399.159 220.504, 399.500 220.159, 399.500 217.500 L 399.500 214.500 390.233 214.212 C 382.788 213.981, 380.855 214.215, 380.399 215.404 M 400.492 220.326 C 400.134 223.722, 399.989 228.525, 400.170 231 C 400.484 235.277, 400.663 235.516, 403.785 235.816 L 407.069 236.132 406.785 225.426 L 406.500 214.719 403.821 214.435 C 401.235 214.161, 401.121 214.363, 400.492 220.326 M 414.314 215.950 C 410.318 218.387, 408.991 220.832, 409.033 225.684 C 409.087 231.832, 413.734 236, 420.534 236 C 425.828 236, 431 230.724, 431 225.323 C 431 220.797, 429.037 217.587, 424.989 215.494 C 421.114 213.491, 418.139 213.618, 414.314 215.950 M 432.821 220.810 C 432.415 236.017, 432.307 235.466, 435.769 235.809 C 438.833 236.113, 438.891 236.037, 439.193 231.309 L 439.500 226.500 442.798 231.250 C 445.485 235.120, 446.649 236, 449.082 236 L 452.068 236 451.784 225.250 L 451.500 214.500 448.500 214.500 C 445.628 214.500, 445.487 214.704, 445.194 219.278 L 444.888 224.056 441.605 219.292 C 439.218 215.827, 437.597 214.473, 435.661 214.324 C 433.040 214.123, 432.997 214.221, 432.821 220.810 M 460.667 214.667 C 460.300 215.033, 460 219.983, 460 225.667 L 460 236 463.500 236 C 466.462 236, 467.001 235.654, 467.004 233.750 C 467.008 231.867, 467.599 231.469, 470.623 231.313 C 480.860 230.783, 482.135 217.798, 472.221 215.044 C 468.006 213.874, 461.667 213.667, 460.667 214.667 M 481.500 214.833 C 481.225 215.108, 481 219.983, 481 225.667 L 481 236 484 236 C 486.333 236, 487 235.556, 487 234 C 487 232.679, 487.667 232, 488.965 232 C 490.045 232, 491.411 232.900, 492 234 C 492.754 235.409, 494.094 236, 496.535 236 C 500.403 236, 500.693 235.435, 498.461 232.248 C 497.076 230.270, 497.076 229.754, 498.461 227.075 C 500.627 222.888, 500.386 220.658, 497.451 217.723 C 495.704 215.977, 493.421 215.006, 490.201 214.642 C 484.899 214.041, 482.233 214.100, 481.500 214.833 M 507.500 215.167 C 502.637 217.857, 501 220.267, 501 224.740 C 501 227.155, 501.463 229.997, 502.030 231.055 C 503.476 233.758, 508.246 236, 512.550 236 C 517.700 236, 523 230.707, 523 225.565 C 523 220.939, 520.491 217.103, 516.328 215.364 C 512.425 213.733, 510.183 213.683, 507.500 215.167 M 529.314 215.950 C 522.798 219.923, 521.966 227.166, 527.400 232.600 C 531.264 236.464, 535.956 237.108, 541.050 234.474 C 543.717 233.095, 544 232.471, 544 227.974 L 544 223 539.969 223 C 535.430 223, 533.473 225.411, 536.322 227.493 C 538.192 228.861, 537.531 230, 534.869 230 C 532.486 230, 530.673 226.438, 531.460 223.303 C 532.017 221.084, 532.515 220.841, 535.742 221.218 C 538.113 221.495, 540.025 221.103, 541.196 220.100 C 543.656 217.994, 543.482 217.300, 540.050 215.526 C 536.115 213.491, 533.155 213.608, 529.314 215.950 M 546.750 214.561 C 546.337 214.986, 546 219.983, 546 225.667 L 546 236 549.500 236 C 552.500 236, 553 235.667, 553 233.667 C 553 232.196, 553.591 231.333, 554.597 231.333 C 555.476 231.333, 556.673 232.383, 557.258 233.667 C 558.222 235.782, 558.964 236, 565.192 236 C 570.377 236, 572.204 235.632, 572.638 234.500 C 573.010 233.532, 574.557 233, 577 233 C 579.443 233, 580.990 233.532, 581.362 234.500 C 582.022 236.222, 588 236.596, 588 234.916 C 588 234.320, 586.322 229.577, 584.271 224.378 C 581.360 216.997, 580.044 214.798, 578.273 214.354 C 577.025 214.041, 575.433 214.004, 574.733 214.272 C 574.034 214.540, 571.699 219.123, 569.543 224.457 C 565.627 234.148, 565.623 234.152, 563.876 231.835 C 562.315 229.767, 562.289 229.338, 563.630 227.857 C 565.991 225.247, 565.033 219.095, 561.903 216.768 C 559.196 214.756, 548.127 213.144, 546.750 214.561 M 589.667 214.667 C 589.300 215.033, 589 219.983, 589 225.667 L 589 236 592.500 236 L 596 236 596 231.277 L 596 226.555 597.668 229.027 C 598.586 230.387, 599.526 231.725, 599.758 232 C 599.990 232.275, 601.262 231.150, 602.585 229.500 L 604.990 226.500 604.995 231.250 C 605 235.860, 605.088 236, 608 236 L 611 236 611 225 L 611 214 608.514 214 C 606.722 214, 605.290 215.116, 603.381 218 C 600.872 221.792, 599 223.106, 599 221.077 C 599 220.569, 597.835 218.769, 596.411 217.077 C 593.970 214.176, 591.161 213.172, 589.667 214.667 M 617.315 215.007 C 614.443 216.164, 612.682 219.595, 613.429 222.575 C 614.028 224.961, 618.522 228, 621.450 228 C 622.303 228, 623 228.450, 623 229 C 623 230.295, 619.405 230.287, 616.976 228.987 C 615.483 228.188, 614.864 228.385, 614.042 229.922 C 612.502 232.800, 612.734 233.558, 615.547 234.839 C 619.998 236.868, 625.801 236.290, 628.545 233.545 C 629.895 232.195, 631 230.361, 631 229.469 C 631 227.176, 625.550 222, 623.136 222 C 622.026 222, 620.840 221.550, 620.500 221 C 619.737 219.766, 620.621 219.744, 624.643 220.898 C 627.419 221.694, 627.898 221.519, 628.886 219.350 C 630.351 216.136, 630.455 216.354, 626.851 215.098 C 623.163 213.812, 620.347 213.785, 617.315 215.007 M 638.502 218.209 C 638.155 220.569, 638.012 225.425, 638.185 229 L 638.500 235.500 641.750 235.813 C 644.935 236.120, 645 236.045, 645 232.063 L 645 228 649.500 228 C 653.833 228, 654 227.889, 654 225 C 654 222.110, 653.826 221.994, 649.250 221.843 L 644.500 221.686 649.500 221.093 C 654.257 220.529, 654.500 220.354, 654.500 217.500 L 654.500 214.500 646.817 214.209 L 639.135 213.918 638.502 218.209 M 660.314 215.950 C 656.509 218.270, 655 220.809, 655 224.887 C 655 231.344, 659.608 236, 666 236 C 677.644 236, 681.332 220.843, 670.989 215.494 C 667.114 213.491, 664.139 213.618, 660.314 215.950 M 679.667 214.667 C 679.300 215.033, 679 220.012, 679 225.730 L 679 236.127 682.250 235.813 C 684.627 235.584, 685.463 235.030, 685.361 233.750 C 685.167 231.308, 688.660 231.496, 690 234 C 690.754 235.409, 692.094 236, 694.535 236 C 698.420 236, 698.696 235.439, 696.413 232.179 C 694.964 230.111, 694.964 229.704, 696.413 227.492 C 701.020 220.462, 694.855 214, 683.542 214 C 681.777 214, 680.033 214.300, 679.667 214.667 M 705.454 215.258 C 705.161 216.024, 705.051 220.891, 705.210 226.075 L 705.500 235.500 708.750 235.813 C 711.328 236.062, 712.007 235.752, 712.032 234.313 C 712.049 233.316, 712.639 231.744, 713.342 230.819 C 714.491 229.307, 714.805 229.483, 716.467 232.569 C 718.089 235.580, 718.795 236, 722.239 236 L 726.163 236 723.892 232.250 C 722.643 230.188, 720.968 227.470, 720.170 226.210 C 718.831 224.099, 718.963 223.580, 721.859 219.547 C 723.587 217.141, 725 214.982, 725 214.749 C 725 214.515, 723.417 214.265, 721.483 214.192 C 718.322 214.073, 717.672 214.533, 715.051 218.744 L 712.136 223.427 711.818 218.964 C 711.530 214.928, 711.236 214.470, 708.744 214.183 C 707.072 213.991, 705.779 214.413, 705.454 215.258 M 726.713 214.621 C 725.846 215.487, 725.757 232.203, 726.607 234.418 C 726.969 235.362, 728.394 236, 730.141 236 L 733.068 236 732.784 225.250 C 732.502 214.571, 732.483 214.498, 729.963 214.204 C 728.567 214.041, 727.104 214.229, 726.713 214.621 M 735.750 214.561 C 735.337 214.986, 735 220.034, 735 225.780 L 735 236.226 741.966 235.832 C 747.953 235.494, 749.346 235.043, 751.868 232.627 C 753.482 231.081, 755.031 228.620, 755.310 227.158 C 755.988 223.611, 753.761 218.545, 750.619 216.486 C 747.885 214.695, 736.991 213.285, 735.750 214.561 M 761 214.659 C 753.795 217.551, 754.810 226.123, 762.529 227.571 C 764.438 227.930, 766 228.623, 766 229.111 C 766 230.335, 760.265 230.237, 759.500 229 C 758.414 227.242, 757.237 227.921, 756.536 230.711 C 755.538 234.691, 758.157 236.264, 764.900 235.735 C 770.862 235.266, 773 233.480, 773 228.964 C 773 225.719, 770.426 223.235, 766.184 222.387 C 764.433 222.037, 763 221.326, 763 220.808 C 763 220.289, 764.013 220.156, 765.250 220.512 C 766.487 220.868, 768.235 221.362, 769.134 221.610 C 771.024 222.132, 772.711 217.311, 771.176 215.776 C 770.014 214.614, 763.024 213.847, 761 214.659 M 271 223.088 C 271 225.278, 271.469 226, 272.893 226 C 276.717 226, 276.373 220.965, 272.510 220.399 C 271.458 220.244, 271 221.061, 271 223.088 M 359 223.208 C 359 225.676, 359.356 226.089, 361.250 225.820 C 364.627 225.340, 364.863 221.398, 361.553 220.765 C 359.285 220.332, 359 220.605, 359 223.208 M 467 223.208 C 467 225.676, 467.356 226.089, 469.250 225.820 C 472.627 225.340, 472.863 221.398, 469.553 220.765 C 467.285 220.332, 467 220.605, 467 223.208 M 487.558 220.775 C 487.251 221.082, 487 222.383, 487 223.667 C 487 225.283, 487.577 226, 488.878 226 C 491.042 226, 493.444 223.527, 492.602 222.165 C 491.889 221.011, 488.308 220.025, 487.558 220.775 M 553 223.208 C 553 225.676, 553.356 226.089, 555.250 225.820 C 558.627 225.340, 558.863 221.398, 555.553 220.765 C 553.285 220.332, 553 220.605, 553 223.208 M 685.917 220.344 C 685.132 221.816, 685.666 225.318, 686.738 225.730 C 688.427 226.378, 691.496 223.611, 690.634 222.217 C 690.132 221.405, 686.186 219.838, 685.917 220.344 M 742 225.086 C 742 229.227, 742.296 230, 743.878 230 C 748.767 230, 749.518 222.167, 744.750 220.903 C 742.024 220.179, 742 220.216, 742 225.086 M 416.414 222.363 C 415.481 224.795, 416.374 228.217, 418.250 229.393 C 420.987 231.108, 423.500 228.953, 423.500 224.891 C 423.500 221.795, 423.217 221.473, 420.243 221.186 C 418.059 220.976, 416.798 221.363, 416.414 222.363 M 508.667 221.667 C 507.562 222.772, 507.917 227.517, 509.200 228.800 C 512.353 231.953, 516.772 228.210, 515.566 223.407 C 515.107 221.578, 514.286 221, 512.148 221 C 510.600 221, 509.033 221.300, 508.667 221.667 M 662.372 223.655 C 661.526 227.024, 663.063 229.500, 666 229.500 C 668.937 229.500, 670.474 227.024, 669.628 223.655 C 669.095 221.529, 668.371 221, 666 221 C 663.629 221, 662.905 221.529, 662.372 223.655 M 576 223.218 C 576 224.108, 575.727 225.548, 575.393 226.418 C 574.954 227.562, 575.388 228, 576.960 228 C 578.750 228, 579.014 227.602, 578.455 225.750 C 577.544 222.734, 576 221.142, 576 223.218" stroke="none" fill="#ec9f22" fill-rule="evenodd"/></svg>